name D:\school\WTK\thesis\model\3dpredictsim\Results\MidTarsalJoint\Fal_s1_bCst_PF_Natali2010_ls150_MT_k20_MTP_Mu5_ig24_PFx5.mot
datacolumns 128
datarows 4
range 1.69777339 1.73172886
endheader
time	pelvis_tilt	pelvis_list	pelvis_rotation	pelvis_tx	pelvis_ty	pelvis_tz	hip_flexion_l	hip_adduction_l	hip_rotation_l	hip_flexion_r	hip_adduction_r	hip_rotation_r	knee_angle_l	knee_angle_r	ankle_angle_l	ankle_angle_r	subtalar_angle_l	subtalar_angle_r	tmt_angle_l	tmt_angle_r	mtp_angle_l	mtp_angle_r	lumbar_extension	lumbar_bending	lumbar_rotation	arm_flex_l	arm_add_l	arm_rot_l	arm_flex_r	arm_add_r	arm_rot_r	elbow_flex_l	elbow_flex_r	pro_sup_l	pro_sup_r	glut_med1_l/activation	glut_med2_l/activation	glut_med3_l/activation	glut_min1_l/activation	glut_min2_l/activation	glut_min3_l/activation	semimem_l/activation	semiten_l/activation	bifemlh_l/activation	bifemsh_l/activation	sar_l/activation	add_long_l/activation	add_brev_l/activation	add_mag1_l/activation	add_mag2_l/activation	add_mag3_l/activation	tfl_l/activation	pect_l/activation	grac_l/activation	glut_max1_l/activation	glut_max2_l/activation	glut_max3_l/activation	iliacus_l/activation	psoas_l/activation	quad_fem_l/activation	gem_l/activation	peri_l/activation	rect_fem_l/activation	vas_med_l/activation	vas_int_l/activation	vas_lat_l/activation	med_gas_l/activation	lat_gas_l/activation	soleus_l/activation	tib_post_l/activation	flex_dig_l/activation	flex_hal_l/activation	tib_ant_l/activation	per_brev_l/activation	per_long_l/activation	per_tert_l/activation	ext_dig_l/activation	ext_hal_l/activation	ercspn_l/activation	intobl_l/activation	extobl_l/activation	glut_med1_r/activation	glut_med2_r/activation	glut_med3_r/activation	glut_min1_r/activation	glut_min2_r/activation	glut_min3_r/activation	semimem_r/activation	semiten_r/activation	bifemlh_r/activation	bifemsh_r/activation	sar_r/activation	add_long_r/activation	add_brev_r/activation	add_mag1_r/activation	add_mag2_r/activation	add_mag3_r/activation	tfl_r/activation	pect_r/activation	grac_r/activation	glut_max1_r/activation	glut_max2_r/activation	glut_max3_r/activation	iliacus_r/activation	psoas_r/activation	quad_fem_r/activation	gem_r/activation	peri_r/activation	rect_fem_r/activation	vas_med_r/activation	vas_int_r/activation	vas_lat_r/activation	med_gas_r/activation	lat_gas_r/activation	soleus_r/activation	tib_post_r/activation	flex_dig_r/activation	flex_hal_r/activation	tib_ant_r/activation	per_brev_r/activation	per_long_r/activation	per_tert_r/activation	ext_dig_r/activation	ext_hal_r/activation	ercspn_r/activation	intobl_r/activation	extobl_r/activation	
          1.69777339	         -2.92989430	          2.81047217	         -5.35528738	          2.12221674	          0.92299427	          0.00202765	         25.39204357	          4.36813005	         -1.68141806	        -15.29658526	         -1.28696110	          6.36231972	         -3.22278325	         -9.99682266	          4.16867351	          0.76595610	         -7.22090964	          8.33448206	         -3.24585958	          3.30170940	          9.75559289	         -0.43099370	         -1.99837241	         -1.21907531	          2.03073322	         -5.21743775	        -13.46340390	          6.07110175	          4.51605200	        -13.45962716	         16.72541998	         15.70953340	         36.68287484	         86.51662706	         86.51662706	          0.05943208	          0.05943182	          0.05000018	          0.05942823	          0.05726773	          0.05002115	          0.13410722	          0.06484647	          0.18192383	          0.05000017	          0.05000022	          0.16758462	          0.29154471	          0.18893354	          0.21183468	          0.13690893	          0.05000049	          0.05021878	          0.16379386	          0.07064277	          0.09666340	          0.10412071	          0.05000007	          0.05000005	          0.17689023	          0.05000079	          0.05000041	          0.05000016	          0.14898875	          0.15200037	          0.11668494	          0.05119656	          0.05006448	          0.05943206	          0.05545702	          0.05000029	          0.05000023	          0.49081064	          0.31747524	          0.20533303	          0.08214321	          0.40931602	          0.05162280	          0.05943206	          0.10666123	          0.09450352	          0.34735047	          0.09980998	          0.07051986	          0.34668160	          0.20068057	          0.09985322	          0.05000081	          0.05000019	          0.05000013	          0.05233903	          0.10670286	          0.05000018	          0.05000011	          0.05000014	          0.05000039	          0.05000024	          0.33446869	          0.05000071	          0.05000044	          0.05000417	          0.05000151	          0.05000054	          0.38526460	          0.60183108	          0.05000017	          0.05000031	          0.05000015	          0.17410516	          0.05000021	          0.05000015	          0.05000013	          0.26382806	          0.36874045	          0.38181341	          0.25962385	          0.30990588	          0.38203500	          0.05000003	          0.09075731	          0.20348901	          0.05000020	          0.05000008	          0.05000029	          0.05000000	          0.05000000	          0.05000003	
          1.70909188	         -2.92933633	          2.89981549	         -5.59195560	          2.13930622	          0.92229214	          0.00182817	         24.44206727	          4.83310453	         -1.42540478	        -15.06591696	         -1.56048736	          6.15949553	         -2.85190798	        -12.08658796	          3.52000780	          0.20554392	         -7.56337634	          9.21828070	         -3.23186847	          2.56144597	          9.66461303	          0.70253582	         -1.78541580	         -1.41778474	          2.09564512	         -6.07495713	        -13.45676382	          5.81541234	          4.17279898	        -13.47821769	         16.95181404	         15.42615918	         37.82658765	         86.51662706	         86.51662706	          0.05000002	          0.05000004	          0.05943193	          0.05000003	          0.05000004	          0.05000006	          0.11282399	          0.05455515	          0.15305198	          0.05000008	          0.05000048	          0.14101751	          0.36409548	          0.37144494	          0.27303818	          0.11518169	          0.05000003	          0.08399639	          0.17423981	          0.05943196	          0.08663284	          0.14539293	          0.05000011	          0.05000029	          0.53087553	          0.19004876	          0.13732974	          0.07414507	          0.18184575	          0.18339544	          0.13811296	          0.05000001	          0.05000003	          0.05000000	          0.05883835	          0.05940609	          0.05943264	          0.54904156	          0.26709104	          0.24765499	          0.21870789	          0.34435751	          0.05943239	          0.05000001	          0.08973373	          0.07950550	          0.29222483	          0.08396982	          0.05932822	          0.29166217	          0.16883193	          0.08400621	          0.05000186	          0.05000023	          0.05000029	          0.05000015	          0.08976890	          0.10468971	          0.07651440	          0.05002255	          0.05000562	          0.05000449	          0.28138766	          0.07001546	          0.05000244	          0.05000084	          0.05000066	          0.05000070	          0.32412183	          0.53664153	          0.05000023	          0.05026601	          0.05943232	          0.15560360	          0.05000204	          0.14097856	          0.13412638	          0.22195764	          0.31022010	          0.32751549	          0.22453794	          0.36365711	          0.44416431	          0.05000001	          0.07635392	          0.19485767	          0.05000008	          0.05000002	          0.05000011	          0.06516455	          0.07064350	          0.05944447	
          1.72041037	         -2.92400611	          2.99815806	         -5.79546785	          2.15668116	          0.92158022	          0.00166517	         23.42156693	          5.16026678	         -1.12008042	        -14.78353505	         -1.84295020	          5.95342148	         -2.83188144	        -14.24654818	          2.87789088	         -0.50506471	         -7.90757496	         10.08116570	         -3.34704874	          1.60741984	          9.74092295	          2.25196165	         -1.55220148	         -1.63467908	          2.14657349	         -6.94502285	        -13.46308911	          5.63472795	          3.74781834	        -13.49090354	         17.09603247	         15.16437870	         38.96093750	         86.51662706	         86.51662706	          0.30901079	          0.27330834	          0.05000008	          0.05004154	          0.05000063	          0.33522731	          0.12024201	          0.05024014	          0.13982735	          0.05000012	          0.05000020	          0.11863757	          0.30631231	          0.31249541	          0.22970618	          0.11606880	          0.05000106	          0.07066622	          0.14658761	          0.05000019	          0.07288397	          0.12231860	          0.05000034	          0.05000016	          0.44662378	          0.15988741	          0.19245246	          0.06237801	          0.15298630	          0.15429005	          0.11619406	          0.05627322	          0.05684347	          0.05943205	          0.05000003	          0.05000037	          0.05000063	          0.59387531	          0.41011509	          0.20835137	          0.42231037	          0.40598853	          0.05000028	          0.05000005	          0.11862082	          0.06688771	          0.35665017	          0.07064355	          0.05000032	          0.24537465	          0.14203779	          0.07067417	          0.05000151	          0.05000033	          0.05000026	          0.05000014	          0.07552243	          0.15155176	          0.07586025	          0.05069981	          0.05003477	          0.05000238	          0.26180913	          0.05891461	          0.05000207	          0.05006747	          0.05006882	          0.05004230	          0.27268273	          0.51076070	          0.05491124	          0.05000089	          0.05000025	          0.13090879	          0.06200086	          0.11860493	          0.11284016	          0.18673221	          0.26098711	          0.27553766	          0.18890303	          0.30594411	          0.37370074	          0.05000003	          0.07540340	          0.22783096	          0.05000011	          0.05000003	          0.05000014	          0.06135991	          0.05943214	          0.05875702	
          1.73172886	         -2.91619975	          3.10430228	         -5.95943510	          2.17415269	          0.92091356	          0.00149081	         22.33618992	          5.41817513	         -0.80858422	        -14.40185469	         -2.12946677	          5.76052994	         -2.76790274	        -16.53310653	          2.23055744	         -1.39662195	         -8.23575304	         10.91519835	         -3.36269877	          0.46270188	          9.92837186	          4.22681160	         -1.31971231	         -1.86756556	          2.18871416	         -7.78227011	        -13.47575326	          5.52459465	          3.27212442	        -13.50422866	         17.17895201	         14.90323149	         40.06121863	         86.51662706	         86.51662706	          0.38246477	          0.35034115	          0.29690614	          0.06468063	          0.27025843	          0.28202586	          0.10672991	          0.10641724	          0.11972939	          0.07911379	          0.05011931	          0.09980939	          0.25769951	          0.26290138	          0.19325114	          0.11845203	          0.05000031	          0.05945138	          0.12332382	          0.20733370	          0.13854272	          0.10290629	          0.05000007	          0.05000008	          0.37574307	          0.13451280	          0.16190972	          0.05247841	          0.12870691	          0.12980375	          0.09775373	          0.05000002	          0.05000005	          0.05000000	          0.05000008	          0.05943199	          0.05943136	          0.70774298	          0.44821146	          0.23906674	          0.57429383	          0.41536046	          0.13720673	          0.07718649	          0.09979532	          0.05627242	          0.30004904	          0.05943220	          0.05000007	          0.26556347	          0.11949598	          0.05945798	          0.05000191	          0.05000015	          0.05000014	          0.05000015	          0.06353703	          0.15259828	          0.08556921	          0.05000096	          0.05000108	          0.05000046	          0.27907562	          0.07129956	          0.05000076	          0.05000080	          0.05000050	          0.05000033	          0.22940707	          0.45038226	          0.05000008	          0.05000049	          0.05000020	          0.11013316	          0.09224565	          0.09980782	          0.09980983	          0.15709717	          0.21956757	          0.23180889	          0.15892349	          0.25738986	          0.31439330	          0.10221370	          0.14914953	          0.19167402	          0.05000054	          0.05000004	          0.05000013	          0.07289426	          0.05000006	          0.05000002	
